Coordinates
version=1
nRows=19
nColumns=24
inDegrees=yes

Units are S.I. units (second, meters, Newtons, ...)
Angles are in degrees.

endheader
time	pelvis_tilt	pelvis_list	pelvis_rotation	pelvis_tx	pelvis_ty	pelvis_tz	hip_flexion_r	hip_adduction_r	hip_rotation_r	knee_angle_r	ankle_angle_r	subtalar_angle_r	mtp_angle_r	hip_flexion_l	hip_adduction_l	hip_rotation_l	knee_angle_l	ankle_angle_l	subtalar_angle_l	mtp_angle_l	lumbar_extension	lumbar_bending	lumbar_rotation
      2.83000000	      0.85096271	     -5.60964073	      9.48053290	      0.92552278	      1.05986417	      1.54429740	     22.71925041	      1.92758511	    -10.13202354	    -48.37891837	      3.01184977	      4.61136561	    -41.92798292	     -2.35879874	     -5.37256623	      9.99026044	     -4.76518951	      7.06108670	     14.03015303	    -53.21321543	    -12.34296265	      7.18444622	     -6.47441236
      2.84000000	      0.51971462	     -5.78064556	     10.03886756	      0.92373723	      1.05863945	      1.54376252	     23.87076995	      1.83984443	    -10.25360771	    -45.23615355	      2.95433949	      3.96435855	    -42.19615391	     -3.10306068	     -5.76976297	      9.96136473	     -4.28437762	      7.59620140	     14.76228404	    -53.29758414	    -12.04700100	      7.48422723	     -7.28374471
      2.85000000	      0.16360152	     -5.88021420	     10.57257594	      0.92202222	      1.05690325	      1.54325851	     24.87428574	      1.65862213	    -10.34852904	    -41.79339404	      2.90031040	      3.44987162	    -42.85533054	     -3.73904275	     -6.09644044	      9.60315406	     -3.98282607	      8.17708619	     15.93523762	    -53.41686826	    -11.72678880	      7.68873173	     -8.10202201
      2.86000000	     -0.18141349	     -5.91208786	     11.05300064	      0.92039442	      1.05472534	      1.54277681	     25.68098100	      1.44935120	    -10.31383364	    -38.04778729	      2.83569735	      2.82837318	    -43.56714129	     -4.40325869	     -6.33773249	      9.41991116	     -3.71811330	      8.81090019	     16.73687826	    -53.43003233	    -11.42772433	      7.81343231	     -8.86876059
      2.87000000	     -0.48551491	     -5.84802012	     11.53144477	      0.91889375	      1.05215895	      1.54227641	     26.25311362	      1.13667737	    -10.29204655	    -34.05200236	      2.75104053	      2.39137811	    -43.73330398	     -5.14785666	     -6.47846809	      9.58922047	     -3.45744582	      9.53335139	     17.14820172	    -53.38808383	    -11.18092424	      7.83555092	     -9.68287001
      2.88000000	     -0.82653830	     -5.74293865	     11.90124878	      0.91754303	      1.04916139	      1.54192012	     26.69941746	      0.85666773	    -10.08897687	    -29.82303964	      2.78768671	      1.77356686	    -45.07542083	     -5.77866130	     -6.57203157	      9.25674361	     -3.39642740	     10.26158107	     18.20952513	    -53.24108467	    -10.90222614	      7.78421908	    -10.34905976
      2.89000000	     -1.09283085	     -5.55386998	     12.26617140	      0.91639960	      1.04587930	      1.54154228	     26.90258814	      0.50018749	     -9.94272057	    -25.46201442	      2.75518469	      1.35723949	    -45.44158488	     -6.58102868	     -6.57677020	      9.45186676	     -3.24936525	     11.00628238	     18.41456423	    -53.13304429	    -10.70570763	      7.65375953	    -11.04760331
      2.90000000	     -1.37616283	     -5.29934498	     12.58934492	      0.91545676	      1.04224656	      1.54121746	     27.03667845	      0.07387371	     -9.91273741	    -21.12786383	      2.95084628	      1.05276397	    -47.65792810	     -7.33084230	     -6.50323013	      9.56382012	     -3.24768189	     11.81937239	     18.73276760	    -52.67727550	    -10.49081274	      7.43678142	    -11.71681491
      2.91000000	     -1.60385884	     -4.98696192	     12.88273963	      0.91479401	      1.03838376	      1.54092435	     27.06898894	     -0.39763091	    -10.10646334	    -16.98825865	      3.02050164	      1.17169461	    -47.79106863	     -8.15959283	     -6.37683782	      9.79068628	     -3.29347086	     12.67377734	     18.83288815	    -52.57833723	    -10.32784144	      7.16004133	    -12.35573333
      2.92000000	     -1.83826266	     -4.63083751	     13.08379728	      0.91438437	      1.03428910	      1.54076444	     27.15561907	     -0.86504241	    -10.44440969	    -13.24590447	      3.12791112	      1.54422541	    -47.95351604	     -8.99585021	     -6.19590854	     10.05677381	     -3.40434904	     13.56075420	     18.89818863	    -52.48044669	    -10.15712071	      6.81247653	    -12.87741587
      2.93000000	     -1.97513603	     -4.26061472	     13.28189701	      0.91429258	      1.03018725	      1.54059173	     27.24057588	     -1.34896091	    -11.37858790	    -10.10687213	      3.52292046	      2.65938849	    -48.69637039	     -9.97672620	     -6.01561340	     10.67722311	     -3.49673244	     14.28545576	     18.37796893	    -52.21951021	    -10.06696639	      6.47172284	    -13.39568215
      2.94000000	     -2.12218817	     -3.93958628	     13.39872799	      0.91446403	      1.02604612	      1.54060140	     27.43086474	     -1.69372589	    -12.43806210	     -7.54034339	      3.81340154	      3.88698961	    -49.23737049	    -10.89568342	     -5.87849743	     11.24525184	     -3.73247715	     15.08260567	     17.90979357	    -51.98277651	     -9.94056305	      6.15698879	    -13.80445710
      2.95000000	     -2.25066472	     -3.68148101	     13.44219038	      0.91491121	      1.02200631	      1.54076315	     27.69107841	     -1.89465680	    -13.58629318	     -5.59181427	      4.01099305	      5.28339061	    -49.63102036	    -11.80149408	     -5.80011475	     11.89619394	     -4.05971522	     15.83000073	     17.29623077	    -51.75781064	     -9.80391133	      5.89616580	    -14.10689115
      2.96000000	     -2.35201128	     -3.50651257	     13.42458268	      0.91562025	      1.01818000	      1.54107329	     27.97705487	     -1.92999701	    -14.58281197	     -4.22928356	      4.03854539	      6.53542734	    -49.83259830	    -12.68158568	     -5.79937226	     12.62764378	     -4.49361200	     16.46579817	     16.56687202	    -51.57293442	     -9.66108680	      5.71271332	    -14.31875589
      2.97000000	     -2.42648468	     -3.41804811	     13.34558055	      0.91658636	      1.01465134	      1.54150995	     28.25192399	     -1.80837852	    -15.21078863	     -3.41074866	      3.82634418	      7.35675540	    -49.83761277	    -13.51055397	     -5.87108404	     13.41092652	     -5.06908311	     16.98241806	     15.78546238	    -51.45845162	     -9.51018780	      5.61704624	    -14.44001813
      2.98000000	     -2.48364216	     -3.42202281	     13.16457428	      0.91779602	      1.01148413	      1.54214006	     28.50373823	     -1.51537591	    -15.22722436	     -3.08663270	      3.36543376	      7.49304880	    -49.85565950	    -14.17381898	     -6.01206346	     13.74135797	     -5.96687514	     17.37935497	     15.64522374	    -51.43110093	     -9.34876609	      5.60352269	    -14.39507273
      2.99000000	     -2.46000334	     -3.47493468	     13.01510832	      0.91922227	      1.00886211	      1.54272242	     28.67827535	     -1.17818864	    -14.98997017	     -3.31694824	      2.66820653	      7.14312538	    -49.46438377	    -14.90345161	     -6.17346327	     14.87998959	     -6.86508333	     17.42598147	     14.47714689	    -51.50803265	     -9.24418202	      5.66993199	    -14.37236737
      3.00000000	     -2.39192061	     -3.58892006	     12.77218037	      0.92091650	      1.00677165	      1.54344068	     28.80069916	     -0.73495201	    -14.37254927	     -4.00096331	      1.79299108	      6.44089743	    -49.03999655	    -15.43708734	     -6.35999484	     15.39922554	     -8.16542509	     17.25575842	     14.16579071	    -51.72066489	     -9.16349307	      5.79708488	    -14.19753807
      3.01000000	     -2.23156892	     -3.72759614	     12.49643145	      0.92284645	      1.00533162	      1.54420166	     28.81914215	     -0.24138185	    -13.54404280	     -5.10488100	      0.81026839	      5.46955785	    -48.52845928	    -15.85607639	     -6.53877044	     15.75629167	     -9.78270004	     16.70659927	     14.14891992	    -52.02822537	     -9.16615567	      5.96624920	    -13.93251604
